<?xml version="1.0" standalone="no"?>
<!DOCTYPE svg PUBLIC "-//W3C//DTD SVG 20010904//EN"
 "http://www.w3.org/TR/2001/REC-SVG-20010904/DTD/svg10.dtd">
<svg version="1.0" xmlns="http://www.w3.org/2000/svg"
 width="500.000000pt" height="500.000000pt" viewBox="0 0 500.000000 500.000000"
 preserveAspectRatio="xMidYMid meet">
<metadata>
Created by potrace 1.14, written by Peter Selinger 2001-2017
</metadata>
<g transform="translate(0.000000,500.000000) scale(0.100000,-0.100000)"
fill="#000000" stroke="none">
<path d="M1719 4720 c-406 -48 -749 -363 -834 -765 -23 -108 -31 -331 -16
-435 27 -185 97 -356 208 -513 80 -113 278 -309 463 -457 420 -337 720 -599
698 -610 -7 -4 -61 -11 -119 -15 l-107 -7 -12 37 c-37 111 -263 375 -429 501
-98 74 -220 137 -302 154 -143 31 -289 -8 -371 -99 -33 -36 -56 -51 -100 -64
-63 -20 -142 -83 -172 -140 -15 -27 -30 -38 -72 -51 -62 -20 -144 -81 -179
-134 -48 -73 -68 -148 -68 -252 0 -82 4 -107 31 -179 102 -272 364 -636 674
-936 249 -242 389 -323 683 -395 392 -98 655 -131 866 -111 262 25 407 74 798
268 352 175 338 172 687 157 120 -5 243 -6 273 -1 119 18 231 108 292 235 55
114 81 238 86 419 13 398 -86 692 -261 778 -47 23 -67 26 -172 29 -100 2 -136
7 -224 34 -126 37 -402 106 -484 121 -88 16 -256 13 -339 -5 -138 -31 -258
-98 -376 -210 -66 -62 -68 -63 -156 -78 -50 -9 -97 -16 -105 -16 -25 1 234
228 557 488 405 326 553 483 667 709 153 304 155 717 6 1013 -161 321 -491
531 -835 532 -207 1 -378 -61 -537 -194 l-48 -39 -62 51 c-163 133 -404 204
-609 180z m-425 -2333 c129 -60 313 -218 427 -371 62 -81 104 -154 95 -163 -3
-3 -35 -16 -72 -28 l-68 -23 -20 27 c-120 153 -279 300 -469 435 -101 71 -127
94 -125 111 7 49 136 56 232 12z m-239 -161 c97 -47 197 -120 303 -221 90 -85
188 -199 212 -244 11 -22 16 -259 5 -269 -2 -3 -53 42 -112 98 -59 57 -226
201 -369 321 -144 119 -269 228 -278 240 -23 34 -20 54 15 83 26 22 40 26 93
26 50 0 75 -7 131 -34z m2570 -161 c61 -14 202 -51 315 -82 190 -52 212 -56
304 -55 l100 1 32 -35 c73 -77 117 -266 117 -504 0 -278 -53 -445 -161 -499
-34 -17 -58 -18 -327 -14 -189 4 -311 2 -350 -6 -43 -7 -148 -54 -365 -161
-339 -166 -398 -191 -550 -226 -253 -60 -518 -40 -985 71 -189 45 -235 64
-356 145 -289 192 -658 624 -827 969 -50 101 -56 121 -59 190 -4 65 -1 82 19
120 32 63 66 84 138 89 55 4 69 1 138 -33 72 -35 97 -57 382 -345 169 -169
327 -337 354 -376 124 -176 285 -296 445 -330 121 -26 454 -38 712 -25 340 16
443 34 437 74 -9 63 -153 87 -399 66 -209 -17 -549 -17 -674 0 -177 24 -315
75 -354 130 -26 36 -51 157 -51 241 0 109 33 170 115 212 32 17 69 22 200 29
182 9 242 15 410 35 142 17 442 63 469 71 10 3 61 45 113 94 105 99 215 162
313 179 81 13 220 4 345 -25z"/>
</g>
</svg>
